Comme-SemiBold.ufo
<glyph name="ampersand" format="1">
  <advance width="1420"/>
  <unicode hex="0026"/>
  <outline>
    <contour>
      <point x="624.195" y="1348.01" type="curve" smooth="yes"/>
      <point x="727.952" y="1348.01"/>
      <point x="793" y="1297.04"/>
      <point x="793" y="1194" type="curve" smooth="yes"/>
      <point x="793" y="1077"/>
      <point x="681" y="978"/>
      <point x="568" y="919" type="curve"/>
      <point x="471" y="1031"/>
      <point x="443" y="1098"/>
      <point x="443" y="1190" type="curve" smooth="yes"/>
      <point x="443" y="1294.05"/>
      <point x="522.533" y="1348.01"/>
    </contour>
    <contour>
      <point x="94.6262" y="421.874" type="curve" smooth="yes"/>
      <point x="94.6262" y="137.936"/>
      <point x="290.799" y="-18"/>
      <point x="582" y="-18" type="curve" smooth="yes"/>
      <point x="765.559" y="-18"/>
      <point x="907.188" y="52.0503"/>
      <point x="1020.8" y="153.328" type="curve"/>
      <point x="1194" y="-30" type="line"/>
      <point x="1336" y="97" type="line"/>
      <point x="1149.17" y="293.307" type="line"/>
      <point x="1245.11" y="418.088"/>
      <point x="1317.25" y="559.003"/>
      <point x="1381" y="673" type="curve"/>
      <point x="1236" y="772" type="line"/>
      <point x="1162.69" y="631.499"/>
      <point x="1093.42" y="515.875"/>
      <point x="1024.39" y="424.426" type="curve"/>
      <point x="666" y="801" type="line"/>
      <point x="834" y="891"/>
      <point x="1000" y="1020"/>
      <point x="1000" y="1199" type="curve" smooth="yes"/>
      <point x="1000" y="1417"/>
      <point x="813" y="1511"/>
      <point x="622" y="1511" type="curve" smooth="yes"/>
      <point x="415" y="1511"/>
      <point x="232" y="1389"/>
      <point x="232" y="1172" type="curve" smooth="yes"/>
      <point x="232" y="1042"/>
      <point x="315" y="917"/>
      <point x="401" y="829" type="curve"/>
      <point x="245.45" y="739.559"/>
      <point x="94.6262" y="627.434"/>
    </contour>
    <contour>
      <point x="897.451" y="283.891" type="line"/>
      <point x="814.36" y="210.202"/>
      <point x="611.367" y="157.315"/>
      <point x="593.205" y="157.315" type="curve" smooth="yes"/>
      <point x="592.347" y="157.315"/>
      <point x="591.901" y="157.433"/>
      <point x="591.901" y="157.673" type="curve" smooth="yes"/>
      <point x="591.901" y="158.085"/>
      <point x="593.213" y="158.855"/>
      <point x="596" y="160" type="curve"/>
      <point x="428" y="160"/>
      <point x="314" y="250"/>
      <point x="316" y="413" type="curve" smooth="yes"/>
      <point x="314" y="551"/>
      <point x="428" y="650"/>
      <point x="510" y="694" type="curve"/>
    </contour>
  </outline>
</glyph>
<glyph name="quotesingle" format="1">
  <advance width="524"/>
  <unicode hex="0027"/>
  <outline>
    <contour>
      <point x="194" y="932" type="line"/>
      <point x="325" y="932" type="line"/>
      <point x="363" y="1529" type="line"/>
      <point x="123" y="1529" type="line"/>
    </contour>
  </outline>
</glyph>
<glyph name="zero" format="1">
  <advance width="1319"/>
  <unicode hex="0030"/>
  <outline>
    <contour>
      <point x="662" y="-20" type="curve" smooth="yes"/>
      <point x="1024" y="-20"/>
      <point x="1213" y="265"/>
      <point x="1213" y="717" type="curve" smooth="yes"/>
      <point x="1213" y="1180"/>
      <point x="1016" y="1476"/>
      <point x="662" y="1476" type="curve" smooth="yes"/>
      <point x="309" y="1476"/>
      <point x="106" y="1179"/>
      <point x="106" y="717" type="curve" smooth="yes"/>
      <point x="106" y="265"/>
      <point x="301" y="-20"/>
    </contour>
    <contour>
      <point x="662" y="193" type="curve" smooth="yes"/>
      <point x="500" y="193"/>
      <point x="398" y="363"/>
      <point x="398" y="720" type="curve" smooth="yes"/>
      <point x="400" y="1064"/>
      <point x="502" y="1263"/>
      <point x="662" y="1263" type="curve" smooth="yes"/>
      <point x="825" y="1263"/>
      <point x="921" y="1079"/>
      <point x="921" y="720" type="curve" smooth="yes"/>
      <point x="921" y="364"/>
      <point x="825" y="193"/>
    </contour>
  </outline>
</glyph>
<glyph name="equal" format="1">
  <advance width="1170"/>
  <unicode hex="003D"/>
  <outline>
    <contour>
      <point x="111" y="640" type="line"/>
      <point x="111" y="453" type="line"/>
      <point x="1049" y="453" type="line"/>
      <point x="1049" y="640" type="line"/>
    </contour>
    <contour>
      <point x="111" y="1049" type="line"/>
      <point x="111" y="863" type="line"/>
      <point x="1049" y="863" type="line"/>
      <point x="1049" y="1049" type="line"/>
    </contour>
  </outline>
</glyph>
<glyph name="F" format="1">
  <advance width="1234"/>
  <unicode hex="0046"/>
  <outline>
    <contour>
      <point x="733" y="1456" type="move" name="top"/>
    </contour>
    <contour>
      <point x="187" y="1456" type="line"/>
      <point x="187" y="0" type="line"/>
      <point x="475" y="0" type="line"/>
      <point x="475" y="624" type="line"/>
      <point x="1105" y="624" type="line"/>
      <point x="1105" y="821" type="line"/>
      <point x="475" y="821" type="line"/>
      <point x="475" y="1250" type="line"/>
      <point x="1162" y="1250" type="line"/>
      <point x="1176" y="1456" type="line"/>
    </contour>
  </outline>
</glyph>
<glyph name="M" format="1">
  <advance width="1860"/>
  <unicode hex="004D"/>
  <outline>
    <contour>
      <point x="938" y="1456" type="move" name="top"/>
    </contour>
    <contour>
      <point x="168" y="-3" type="line"/>
      <point x="437" y="-3" type="line"/>
      <point x="437" y="517" type="line"/>
      <point x="445.89" y="1046.72" type="line"/>
      <point x="831" y="205" type="line"/>
      <point x="1024" y="205" type="line"/>
      <point x="1413.96" y="1040.51" type="line"/>
      <point x="1422" y="520" type="line"/>
      <point x="1422" y="-3" type="line"/>
      <point x="1692" y="-3" type="line"/>
      <point x="1692" y="553" type="line"/>
      <point x="1669" y="1456" type="line"/>
      <point x="1368" y="1456" type="line"/>
      <point x="933.542" y="531.172" type="line"/>
      <point x="500" y="1456" type="line"/>
      <point x="191" y="1456" type="line"/>
      <point x="168" y="549" type="line"/>
    </contour>
  </outline>
</glyph>
<glyph name="S" format="1">
  <advance width="1225"/>
  <unicode hex="0053"/>
  <outline>
    <contour>
      <point x="614" y="0" type="move" name="bot"/>
    </contour>
    <contour>
      <point x="619" y="1466" type="move" name="top"/>
    </contour>
    <contour>
      <point x="840.066" y="385.508" type="curve" smooth="yes"/>
      <point x="840.066" y="244.617"/>
      <point x="737.817" y="191"/>
      <point x="598" y="191" type="curve" smooth="yes"/>
      <point x="481" y="191"/>
      <point x="358" y="257"/>
      <point x="285" y="339" type="curve"/>
      <point x="262" y="339" type="line"/>
      <point x="94" y="203" type="line"/>
      <point x="174" y="94"/>
      <point x="345" y="-20"/>
      <point x="606" y="-20" type="curve" smooth="yes"/>
      <point x="883.484" y="-20"/>
      <point x="1124.02" y="105.276"/>
      <point x="1124.02" y="399.843" type="curve" smooth="yes"/>
      <point x="1124.02" y="659.202"/>
      <point x="991.324" y="739.667"/>
      <point x="767" y="829" type="curve"/>
      <point x="579" y="905" type="line" smooth="yes"/>
      <point x="434.048" y="963.764"/>
      <point x="386.938" y="997.589"/>
      <point x="386.938" y="1096.66" type="curve" smooth="yes"/>
      <point x="386.938" y="1230.86"/>
      <point x="495.851" y="1276.07"/>
      <point x="620.709" y="1276.07" type="curve" smooth="yes"/>
      <point x="727.684" y="1276.07"/>
      <point x="840.292" y="1227.81"/>
      <point x="898" y="1133" type="curve"/>
      <point x="917" y="1133" type="line"/>
      <point x="1094" y="1248" type="line"/>
      <point x="1022" y="1365"/>
      <point x="856" y="1476"/>
      <point x="614" y="1476" type="curve" smooth="yes"/>
      <point x="612.677" y="1476.01"/>
      <point x="611.354" y="1476.01"/>
      <point x="610.032" y="1476.01" type="curve" smooth="yes"/>
      <point x="342.852" y="1476.01"/>
      <point x="103.602" y="1373.34"/>
      <point x="103.602" y="1066.53" type="curve" smooth="yes"/>
      <point x="103.602" y="853.615"/>
      <point x="215.254" y="775.438"/>
      <point x="397" y="701" type="curve" smooth="yes"/>
      <point x="610" y="614" type="line" smooth="yes"/>
      <point x="794.9" y="537.692"/>
      <point x="840.066" y="496.796"/>
    </contour>
  </outline>
</glyph>
<glyph name="X" format="1">
  <advance width="1356"/>
  <unicode hex="0058"/>
  <outline>
    <contour>
      <point x="842.673" y="735.256" type="line"/>
      <point x="1317" y="1456" type="line"/>
      <point x="1010" y="1456" type="line"/>
      <point x="693.285" y="959.723" type="line"/>
      <point x="363" y="1456" type="line"/>
      <point x="48" y="1456" type="line"/>
      <point x="515.452" y="752.894" type="line"/>
      <point x="18" y="-3" type="line"/>
      <point x="314" y="-3" type="line"/>
      <point x="665.592" y="527.065" type="line"/>
      <point x="1018" y="-3" type="line"/>
      <point x="1334" y="-3" type="line"/>
    </contour>
  </outline>
</glyph>
<glyph name="Z" format="1">
  <advance width="1228"/>
  <unicode hex="005A"/>
  <outline>
    <contour>
      <point x="624" y="0" type="move" name="bot"/>
    </contour>
    <contour>
      <point x="653" y="1456" type="move" name="top"/>
    </contour>
    <contour>
      <point x="100" y="0" type="line"/>
      <point x="1156" y="0" type="line"/>
      <point x="1152" y="193" type="line"/>
      <point x="435.655" y="193" type="line"/>
      <point x="1139" y="1284" type="line"/>
      <point x="1136" y="1456" type="line"/>
      <point x="119" y="1456" type="line"/>
      <point x="128" y="1264" type="line"/>
      <point x="826.296" y="1264" type="line"/>
      <point x="100" y="165" type="line"/>
    </contour>
  </outline>
</glyph>
<glyph name="bracketleft" format="1">
  <advance width="823"/>
  <unicode hex="005B"/>
  <outline>
    <contour>
      <point x="222" y="-252" type="line"/>
      <point x="677" y="-252" type="line"/>
      <point x="677" y="-84" type="line"/>
      <point x="438" y="-84" type="line"/>
      <point x="438" y="1312" type="line"/>
      <point x="677" y="1312" type="line"/>
      <point x="677" y="1480" type="line"/>
      <point x="222" y="1480" type="line"/>
    </contour>
  </outline>
</glyph>
<glyph name="b" format="1">
  <advance width="1240"/>
  <unicode hex="0062"/>
  <outline>
    <contour>
      <point x="718" y="1082" type="move" name="top"/>
    </contour>
    <contour>
      <point x="644" y="162" type="curve" smooth="yes"/>
      <point x="533" y="162"/>
      <point x="461" y="203"/>
      <point x="411" y="270" type="curve"/>
      <point x="411" y="562" type="line" smooth="yes"/>
      <point x="411" y="811"/>
      <point x="504" y="922"/>
      <point x="661" y="922" type="curve" smooth="yes"/>
      <point x="806" y="922"/>
      <point x="869" y="799"/>
      <point x="869" y="546" type="curve" smooth="yes"/>
      <point x="869" y="289"/>
      <point x="787" y="162"/>
    </contour>
    <contour>
      <point x="715.956" y="1104.11" type="curve" smooth="yes"/>
      <point x="571.032" y="1104.11"/>
      <point x="465.083" y="1034.01"/>
      <point x="405.8" y="904.51" type="curve"/>
      <point x="415" y="1129" type="line"/>
      <point x="415" y="1560" type="line"/>
      <point x="146" y="1540" type="line"/>
      <point x="146" y="0" type="line"/>
      <point x="379" y="0" type="line"/>
      <point x="390.059" y="125.946" type="line"/>
      <point x="444.658" y="49.4286"/>
      <point x="542.993" y="-20"/>
      <point x="691" y="-20" type="curve" smooth="yes"/>
      <point x="987" y="-20"/>
      <point x="1144" y="211"/>
      <point x="1144" y="546" type="curve" smooth="yes"/>
      <point x="1144" y="867.004"/>
      <point x="1007.42" y="1104.11"/>
    </contour>
  </outline>
</glyph>
<glyph name="d" format="1">
  <advance width="1235"/>
  <unicode hex="0064"/>
  <outline>
    <contour>
      <point x="1070" y="1147" type="move" name="caron.alt"/>
    </contour>
    <contour>
      <point x="496" y="1082" type="move" name="top"/>
    </contour>
    <contour>
      <point x="602" y="163" type="curve" smooth="yes"/>
      <point x="457" y="163"/>
      <point x="371" y="275"/>
      <point x="371" y="540" type="curve" smooth="yes"/>
      <point x="371" y="817"/>
      <point x="465" y="923"/>
      <point x="608" y="923" type="curve" smooth="yes"/>
      <point x="709" y="923"/>
      <point x="784" y="881"/>
      <point x="829" y="819" type="curve"/>
      <point x="829" y="269" type="line"/>
      <point x="780" y="199"/>
      <point x="699" y="163"/>
    </contour>
    <contour>
      <point x="827" y="1540" type="line"/>
      <point x="827" y="1145" type="line"/>
      <point x="831.234" y="984.115" type="line"/>
      <point x="775.806" y="1049.19"/>
      <point x="686.528" y="1103.01"/>
      <point x="556.404" y="1103.01" type="curve" smooth="yes"/>
      <point x="555.604" y="1103.01"/>
      <point x="554.803" y="1103"/>
      <point x="554" y="1103" type="curve" smooth="yes"/>
      <point x="552.062" y="1103" type="line" smooth="yes"/>
      <point x="257.302" y="1103"/>
      <point x="98" y="875.264"/>
      <point x="98" y="539" type="curve" smooth="yes"/>
      <point x="98" y="215.367"/>
      <point x="250.707" y="-20.0126"/>
      <point x="547.234" y="-20.0126" type="curve" smooth="yes"/>
      <point x="548.487" y="-20.0126"/>
      <point x="549.742" y="-20.0084"/>
      <point x="551" y="-20" type="curve" smooth="yes"/>
      <point x="686.389" y="-20"/>
      <point x="790.327" y="51.2891"/>
      <point x="850.29" y="152.501" type="curve"/>
      <point x="860" y="0" type="line"/>
      <point x="1098" y="0" type="line"/>
      <point x="1098" y="1560" type="line"/>
    </contour>
  </outline>
</glyph>
<glyph name="e" format="1">
  <advance width="1167"/>
  <unicode hex="0065"/>
  <outline>
    <contour>
      <point x="643" y="1" type="move" name="bot"/>
    </contour>
    <contour>
      <point x="623" y="1082" type="move" name="top"/>
    </contour>
    <contour>
      <point x="372" y="626" type="line"/>
      <point x="384.876" y="821.123"/>
      <point x="485.064" y="924.029"/>
      <point x="627.867" y="924.029" type="curve" smooth="yes"/>
      <point x="770.464" y="924.029"/>
      <point x="838.979" y="825.071"/>
      <point x="841" y="626" type="curve"/>
    </contour>
    <contour>
      <point x="647" y="-20" type="curve" smooth="yes"/>
      <point x="814" y="-20"/>
      <point x="960" y="30"/>
      <point x="1047" y="101" type="curve"/>
      <point x="987" y="252" type="line"/>
      <point x="972" y="252" type="line"/>
      <point x="886" y="200"/>
      <point x="795" y="162"/>
      <point x="678" y="162" type="curve" smooth="yes"/>
      <point x="509.551" y="162"/>
      <point x="384.015" y="260.962"/>
      <point x="368.597" y="472" type="curve"/>
      <point x="1058" y="472" type="line"/>
      <point x="1058" y="472"/>
      <point x="1068" y="530"/>
      <point x="1068" y="589" type="curve" smooth="yes"/>
      <point x="1068" y="898"/>
      <point x="924" y="1104"/>
      <point x="617" y="1104" type="curve" smooth="yes"/>
      <point x="314" y="1104"/>
      <point x="96" y="893"/>
      <point x="96" y="540" type="curve" smooth="yes"/>
      <point x="96" y="194"/>
      <point x="322" y="-20"/>
    </contour>
  </outline>
</glyph>
<glyph name="k" format="1">
  <advance width="1158"/>
  <unicode hex="006B"/>
  <outline>
    <contour>
      <point x="628" y="0" type="move" name="bot"/>
    </contour>
    <contour>
      <point x="152" y="0" type="line"/>
      <point x="423" y="0" type="line"/>
      <point x="423" y="412.462" type="line"/>
      <point x="506.885" y="489.894" type="line"/>
      <point x="863" y="0" type="line"/>
      <point x="1141" y="0" type="line"/>
      <point x="1141" y="28" type="line"/>
      <point x="707.234" y="602.321" type="line"/>
      <point x="1117" y="1061" type="line"/>
      <point x="1117" y="1082" type="line"/>
      <point x="828" y="1082" type="line"/>
      <point x="417.506" y="626.204" type="line"/>
      <point x="423" y="802" type="line"/>
      <point x="423" y="1560" type="line"/>
      <point x="152" y="1540" type="line"/>
    </contour>
  </outline>
</glyph>
<glyph name="p" format="1">
  <advance width="1242"/>
  <unicode hex="0070"/>
  <outline>
    <contour>
      <point x="663" y="1082" type="move" name="top"/>
    </contour>
    <contour>
      <point x="640" y="162" type="curve" smooth="yes"/>
      <point x="539" y="162"/>
      <point x="463" y="203"/>
      <point x="413" y="270" type="curve"/>
      <point x="413" y="663" type="line"/>
      <point x="429" y="817"/>
      <point x="505" y="922"/>
      <point x="657" y="922" type="curve" smooth="yes"/>
      <point x="802" y="922"/>
      <point x="871" y="799"/>
      <point x="871" y="546" type="curve" smooth="yes"/>
      <point x="871" y="269"/>
      <point x="783" y="162"/>
    </contour>
    <contour>
      <point x="148" y="-467" type="line"/>
      <point x="416" y="-467" type="line"/>
      <point x="416" y="-61" type="line"/>
      <point x="411.309" y="96.7321" type="line"/>
      <point x="469.455" y="30.9383"/>
      <point x="562.467" y="-20"/>
      <point x="695" y="-20" type="curve" smooth="yes"/>
      <point x="985" y="-20"/>
      <point x="1144" y="214"/>
      <point x="1144" y="545" type="curve" smooth="yes"/>
      <point x="1144" y="870"/>
      <point x="1006" y="1104"/>
      <point x="715" y="1104" type="curve" smooth="yes"/>
      <point x="547.407" y="1104"/>
      <point x="444.164" y="1011.26"/>
      <point x="396.251" y="878.898" type="curve"/>
      <point x="384" y="1082" type="line"/>
      <point x="148" y="1082" type="line"/>
    </contour>
  </outline>
</glyph>
<glyph name="r" format="1">
  <advance width="827"/>
  <unicode hex="0072"/>
  <outline>
    <contour>
      <point x="326" y="0" type="move" name="bot"/>
    </contour>
    <contour>
      <point x="441" y="1082" type="move" name="top"/>
    </contour>
    <contour>
      <point x="143" y="0" type="line"/>
      <point x="414" y="0" type="line"/>
      <point x="414" y="611" type="line" smooth="yes"/>
      <point x="414" y="773.395"/>
      <point x="530.799" y="884.399"/>
      <point x="702.978" y="884.399" type="curve" smooth="yes"/>
      <point x="708.92" y="884.399"/>
      <point x="714.928" y="884.267"/>
      <point x="721" y="884" type="curve" smooth="yes"/>
      <point x="770" y="881" type="line"/>
      <point x="788" y="1083" type="line"/>
      <point x="748" y="1090"/>
      <point x="709" y="1092"/>
      <point x="680" y="1092" type="curve" smooth="yes"/>
      <point x="572.27" y="1092"/>
      <point x="458.898" y="1037.19"/>
      <point x="391.98" y="882.724" type="curve"/>
      <point x="374" y="1082" type="line"/>
      <point x="143" y="1082" type="line"/>
    </contour>
  </outline>
</glyph>
<glyph name="y" format="1">
  <advance width="1134"/>
  <unicode hex="0079"/>
  <outline>
    <contour>
      <point x="567" y="1082" type="move" name="top"/>
    </contour>
    <contour>
      <point x="1117" y="1082" type="line"/>
      <point x="864" y="1082" type="line"/>
      <point x="577.806" y="364.3" type="line"/>
      <point x="275" y="1082" type="line"/>
      <point x="5" y="1082" type="line"/>
      <point x="444.466" y="98.6399" type="line"/>
      <point x="255" y="-358" type="line"/>
      <point x="476" y="-434" type="line"/>
    </contour>
  </outline>
</glyph>
<glyph name="braceright" format="1">
  <advance width="911"/>
  <unicode hex="007D"/>
  <outline>
    <contour>
      <point x="145" y="-290" type="line"/>
      <point x="390" y="-290"/>
      <point x="528" y="-252"/>
      <point x="528" y="13" type="curve" smooth="yes"/>
      <point x="528" y="295" type="line" smooth="yes"/>
      <point x="528" y="454"/>
      <point x="533" y="535"/>
      <point x="737" y="535" type="curve"/>
      <point x="737" y="715" type="line"/>
      <point x="534" y="715"/>
      <point x="528" y="796"/>
      <point x="528" y="955" type="curve" smooth="yes"/>
      <point x="528" y="1238" type="line" smooth="yes"/>
      <point x="528" y="1503"/>
      <point x="390" y="1541"/>
      <point x="145" y="1541" type="curve"/>
      <point x="145" y="1383" type="line"/>
      <point x="283" y="1381"/>
      <point x="317" y="1361"/>
      <point x="317" y="1191" type="curve" smooth="yes"/>
      <point x="317" y="899" type="line" smooth="yes"/>
      <point x="317" y="759"/>
      <point x="347" y="657"/>
      <point x="516" y="625" type="curve"/>
      <point x="347" y="594"/>
      <point x="317" y="492"/>
      <point x="317" y="352" type="curve" smooth="yes"/>
      <point x="317" y="60" type="line" smooth="yes"/>
      <point x="317" y="-110"/>
      <point x="283" y="-130"/>
      <point x="145" y="-132" type="curve"/>
    </contour>
  </outline>
</glyph>
<glyph name="dotlessi" format="1">
  <advance width="571"/>
  <unicode hex="0131"/>
  <outline>
    <contour>
      <point x="299" y="1082" type="move" name="top"/>
    </contour>
    <contour>
      <point x="158" y="1082" type="line"/>
      <point x="158" y="0" type="line"/>
      <point x="429" y="0" type="line"/>
      <point x="429" y="1082" type="line"/>
    </contour>
  </outline>
</glyph>
<glyph name="eng" format="1">
  <advance width="1221"/>
  <unicode hex="014B"/>
  <outline>
    <component base="n"/>
    <contour>
      <point x="832" y="154" type="line"/>
      <point x="832" y="-15" type="line"/>
      <point x="831" y="-238"/>
      <point x="797" y="-287"/>
      <point x="499" y="-287" type="curve"/>
      <point x="513" y="-470" type="line"/>
      <point x="965" y="-460"/>
      <point x="1103" y="-353"/>
      <point x="1103" y="-36" type="curve" smooth="yes"/>
      <point x="1103" y="154" type="line"/>
    </contour>
  </outline>
</glyph>
<glyph name="uni0358" format="1">
  <advance width="536"/>
  <unicode hex="0358"/>
  <outline>
    <contour>
      <point x="431" y="1454" type="curve" smooth="yes"/>
      <point x="431" y="1544"/>
      <point x="372" y="1600"/>
      <point x="272" y="1600" type="curve" smooth="yes"/>
      <point x="173" y="1600"/>
      <point x="113" y="1544"/>
      <point x="113" y="1454" type="curve" smooth="yes"/>
      <point x="113" y="1360"/>
      <point x="173" y="1303"/>
      <point x="272" y="1303" type="curve" smooth="yes"/>
      <point x="372" y="1303"/>
      <point x="431" y="1360"/>
    </contour>
  </outline>
</glyph>
<glyph name="quotedblleft" format="1">
  <advance width="940"/>
  <unicode hex="201C"/>
  <outline>
    <contour>
      <point x="526" y="1026" type="line"/>
      <point x="772" y="1026" type="line"/>
      <point x="813" y="1529" type="line"/>
      <point x="643" y="1529" type="line"/>
    </contour>
    <contour>
      <point x="136" y="1026" type="line"/>
      <point x="383" y="1026" type="line"/>
      <point x="424" y="1529" type="line"/>
      <point x="253" y="1529" type="line"/>
    </contour>
  </outline>
</glyph>
<glyph name="perthousand" format="1">
  <advance width="2780"/>
  <unicode hex="2030"/>
  <outline>
    <component base="percent" xOffset="31"/>
    <contour>
      <point x="2300" y="-21" type="curve" smooth="yes"/>
      <point x="2537" y="-21"/>
      <point x="2667" y="155"/>
      <point x="2667" y="380" type="curve" smooth="yes"/>
      <point x="2667" y="609"/>
      <point x="2540" y="777"/>
      <point x="2300" y="777" type="curve" smooth="yes"/>
      <point x="2064" y="777"/>
      <point x="1934" y="605"/>
      <point x="1934" y="380" type="curve" smooth="yes"/>
      <point x="1934" y="155"/>
      <point x="2060" y="-21"/>
    </contour>
    <contour>
      <point x="2303" y="129" type="curve" smooth="yes"/>
      <point x="2169" y="129"/>
      <point x="2111" y="238"/>
      <point x="2111" y="382" type="curve" smooth="yes"/>
      <point x="2111" y="523"/>
      <point x="2169" y="632"/>
      <point x="2303" y="632" type="curve" smooth="yes"/>
      <point x="2435" y="632"/>
      <point x="2491" y="528"/>
      <point x="2491" y="382" type="curve" smooth="yes"/>
      <point x="2491" y="241"/>
      <point x="2436" y="129"/>
    </contour>
  </outline>
</glyph>
<glyph name="afii61289" format="1">
  <advance width="1289"/>
  <unicode hex="2113"/>
  <outline>
    <contour>
      <point x="693.938" y="829.331" type="line"/>
      <point x="765" y="1134" type="line" smooth="yes"/>
      <point x="785.955" y="1223.84"/>
      <point x="830.731" y="1544"/>
      <point x="984.418" y="1544" type="curve" smooth="yes"/>
      <point x="1069.43" y="1544"/>
      <point x="1138" y="1481.03"/>
      <point x="1138" y="1364" type="curve" smooth="yes"/>
      <point x="1138" y="1179"/>
      <point x="1017" y="1091"/>
      <point x="885" y="984" type="curve" smooth="yes"/>
    </contour>
    <contour>
      <point x="296.623" y="285.146" type="curve" smooth="yes"/>
      <point x="296.623" y="72.7471"/>
      <point x="411.734" y="-20.0963"/>
      <point x="582.414" y="-20.0963" type="curve" smooth="yes"/>
      <point x="833.408" y="-20.0963"/>
      <point x="997" y="98"/>
      <point x="997" y="98" type="curve"/>
      <point x="970" y="261" type="line"/>
      <point x="869.967" y="214.383"/>
      <point x="776.537" y="181.914"/>
      <point x="699.786" y="181.914" type="curve" smooth="yes"/>
      <point x="619.816" y="181.914"/>
      <point x="577.612" y="218.476"/>
      <point x="577.612" y="305.381" type="curve" smooth="yes"/>
      <point x="577.612" y="336.212"/>
      <point x="582.997" y="373.257"/>
      <point x="594" y="417" type="curve" smooth="yes"/>
      <point x="650.07" y="645.827" type="line"/>
      <point x="940" y="865" type="line" smooth="yes"/>
      <point x="1190" y="1053"/>
      <point x="1289" y="1155"/>
      <point x="1289" y="1365" type="curve" smooth="yes"/>
      <point x="1289" y="1585.86"/>
      <point x="1118.11" y="1698.01"/>
      <point x="942.189" y="1698.01" type="curve" smooth="yes"/>
      <point x="789.093" y="1698.01"/>
      <point x="633.629" y="1616.65"/>
      <point x="573" y="1396" type="curve" smooth="yes"/>
      <point x="371.854" y="654.504" type="line"/>
      <point x="73" y="433" type="line"/>
      <point x="125" y="334" type="line"/>
      <point x="321.557" y="473.935" type="line"/>
      <point x="304.544" y="402.98"/>
      <point x="296.623" y="340.153"/>
    </contour>
  </outline>
</glyph>
<glyph name="Delta" format="1">
  <advance width="1308"/>
  <unicode hex="2206"/>
  <outline>
    <contour>
      <point x="686" y="1213" type="line"/>
      <point x="1042" y="176" type="line"/>
      <point x="270" y="176" type="line"/>
      <point x="619" y="1213" type="line"/>
      <point x="652" y="1334" type="line"/>
    </contour>
    <contour>
      <point x="562" y="1566" type="line"/>
      <point x="69" y="87" type="line"/>
      <point x="69" y="0" type="line"/>
      <point x="1243" y="0" type="line"/>
      <point x="1243" y="87" type="line"/>
      <point x="751" y="1566" type="line"/>
    </contour>
  </outline>
</glyph>
